<svg xmlns="http://www.w3.org/2000/svg" xmlns:xlink="http://www.w3.org/1999/xlink" width="200" zoomAndPan="magnify" viewBox="0 0 150 149.999998" height="200" preserveAspectRatio="xMidYMid meet" version="1.0"><defs><g/></defs><rect x="-15" width="180" fill="#ffffff" y="-15" height="179.999997" fill-opacity="1"/><rect x="-15" width="180" fill="#000000" y="-15" height="179.999997" fill-opacity="1"/><g fill="#ffffff" fill-opacity="1"><g transform="translate(9.117188, 91.570461)"><g><path d="M 39.703125 -9.21875 C 39.617188 -8.863281 39.578125 -8.597656 39.578125 -8.421875 C 39.578125 -8.109375 39.65625 -7.863281 39.8125 -7.6875 C 39.96875 -7.507812 40.175781 -7.421875 40.4375 -7.421875 C 40.976562 -7.421875 41.4375 -7.65625 41.8125 -8.125 C 42.1875 -8.59375 42.441406 -8.828125 42.578125 -8.828125 C 42.796875 -8.828125 42.984375 -8.679688 43.140625 -8.390625 C 43.296875 -8.097656 43.375 -7.753906 43.375 -7.359375 C 43.425781 -6.109375 42.984375 -4.867188 42.046875 -3.640625 C 41.109375 -2.421875 39.789062 -1.40625 38.09375 -0.59375 C 36.40625 0.207031 34.515625 0.609375 32.421875 0.609375 C 29.785156 0.609375 27.6875 0.0703125 26.125 -1 C 24.570312 -2.070312 23.570312 -3.476562 23.125 -5.21875 C 21.519531 -3.4375 19.75 -2.085938 17.8125 -1.171875 C 15.875 -0.253906 13.898438 0.203125 11.890625 0.203125 C 8.773438 0.203125 6.160156 -0.5625 4.046875 -2.09375 C 1.929688 -3.632812 0.875 -5.789062 0.875 -8.5625 C 0.875 -9.800781 1.09375 -11.09375 1.53125 -12.4375 L 5.8125 -26.40625 C 5.945312 -26.800781 6.015625 -27.132812 6.015625 -27.40625 C 6.015625 -27.894531 5.898438 -28.285156 5.671875 -28.578125 C 5.453125 -28.867188 5.117188 -29.171875 4.671875 -29.484375 C 4.234375 -29.835938 3.921875 -30.144531 3.734375 -30.40625 C 3.554688 -30.675781 3.535156 -31.035156 3.671875 -31.484375 C 3.941406 -32.503906 5.347656 -33.40625 7.890625 -34.1875 C 10.429688 -34.96875 13.082031 -35.359375 15.84375 -35.359375 C 18.425781 -35.359375 20.316406 -34.867188 21.515625 -33.890625 C 22.722656 -32.910156 23.328125 -31.570312 23.328125 -29.875 C 23.328125 -28.851562 23.171875 -27.875 22.859375 -26.9375 L 18.65625 -13.03125 C 18.46875 -12.539062 18.375 -12.070312 18.375 -11.625 C 18.375 -11 18.550781 -10.53125 18.90625 -10.21875 C 19.269531 -9.914062 19.742188 -9.765625 20.328125 -9.765625 C 21.171875 -9.765625 21.859375 -10.007812 22.390625 -10.5 C 22.921875 -10.988281 23.457031 -11.8125 24 -12.96875 L 28.078125 -26.40625 C 28.210938 -26.800781 28.28125 -27.132812 28.28125 -27.40625 C 28.28125 -27.894531 28.164062 -28.285156 27.9375 -28.578125 C 27.71875 -28.867188 27.40625 -29.171875 27 -29.484375 C 26.5625 -29.835938 26.25 -30.144531 26.0625 -30.40625 C 25.882812 -30.675781 25.863281 -31.035156 26 -31.484375 C 26.226562 -32.503906 27.609375 -33.40625 30.140625 -34.1875 C 32.679688 -34.96875 35.332031 -35.359375 38.09375 -35.359375 C 40.6875 -35.359375 42.59375 -34.867188 43.8125 -33.890625 C 45.039062 -32.910156 45.65625 -31.597656 45.65625 -29.953125 C 45.65625 -29.097656 45.476562 -28.09375 45.125 -26.9375 Z M 39.703125 -9.21875 "/></g></g></g><g fill="#ffffff" fill-opacity="1"><g transform="translate(54.971956, 91.570461)"><g><path d="M 23.265625 0.40625 C 19.515625 0.40625 16.144531 -0.285156 13.15625 -1.671875 C 10.175781 -3.054688 7.804688 -5.09375 6.046875 -7.78125 C 4.285156 -10.476562 3.40625 -13.742188 3.40625 -17.578125 C 3.40625 -20.253906 3.875 -23.148438 4.8125 -26.265625 C 6.863281 -32.953125 9.960938 -37.773438 14.109375 -40.734375 C 18.253906 -43.703125 22.6875 -45.1875 27.40625 -45.1875 C 29.945312 -45.1875 32.195312 -44.804688 34.15625 -44.046875 C 36.113281 -43.285156 37.921875 -42.195312 39.578125 -40.78125 L 41.375 -42.171875 C 42.582031 -43.109375 43.597656 -43.753906 44.421875 -44.109375 C 45.242188 -44.472656 46.164062 -44.65625 47.1875 -44.65625 C 48.300781 -44.65625 49.191406 -44.410156 49.859375 -43.921875 C 50.535156 -43.429688 50.875 -42.71875 50.875 -41.78125 C 50.875 -41.289062 50.78125 -40.800781 50.59375 -40.3125 L 46.859375 -29.875 C 46.453125 -28.675781 45.96875 -27.832031 45.40625 -27.34375 C 44.851562 -26.851562 44.019531 -26.609375 42.90625 -26.609375 C 41.75 -26.609375 40.800781 -27.019531 40.0625 -27.84375 C 39.332031 -28.664062 38.5 -30.078125 37.5625 -32.078125 C 36.5 -34.179688 35.628906 -35.566406 34.953125 -36.234375 C 34.285156 -36.898438 33.304688 -37.234375 32.015625 -37.234375 C 30.191406 -37.234375 28.429688 -36.109375 26.734375 -33.859375 C 25.046875 -31.609375 23.507812 -28.234375 22.125 -23.734375 C 20.96875 -19.941406 20.390625 -16.773438 20.390625 -14.234375 C 20.390625 -12.003906 20.8125 -10.34375 21.65625 -9.25 C 22.5 -8.164062 23.632812 -7.625 25.0625 -7.625 C 27.15625 -7.625 28.878906 -8.085938 30.234375 -9.015625 C 31.597656 -9.953125 32.992188 -11.222656 34.421875 -12.828125 C 35.316406 -13.804688 36.039062 -14.53125 36.59375 -15 C 37.15625 -15.46875 37.75 -15.703125 38.375 -15.703125 C 39.175781 -15.703125 40.019531 -15.300781 40.90625 -14.5 C 41.800781 -13.695312 42.222656 -12.894531 42.171875 -12.09375 C 42.222656 -11.113281 41.429688 -9.597656 39.796875 -7.546875 C 38.171875 -5.503906 35.921875 -3.664062 33.046875 -2.03125 C 30.179688 -0.40625 26.921875 0.40625 23.265625 0.40625 Z M 23.265625 0.40625 "/></g></g></g><g fill="#ffffff" fill-opacity="1"><g transform="translate(101.227782, 91.570461)"><g><path d="M 21.984375 -35.96875 C 25.691406 -35.96875 28.890625 -35.628906 31.578125 -34.953125 C 34.273438 -34.285156 36.347656 -33.347656 37.796875 -32.140625 C 39.242188 -30.941406 39.96875 -29.585938 39.96875 -28.078125 C 39.96875 -26.515625 39.351562 -25.242188 38.125 -24.265625 C 36.90625 -23.285156 35.203125 -22.796875 33.015625 -22.796875 C 30.785156 -22.796875 28.898438 -23.351562 27.359375 -24.46875 C 25.828125 -25.582031 25.0625 -26.984375 25.0625 -28.671875 C 25.0625 -29.253906 25.148438 -29.8125 25.328125 -30.34375 C 24.523438 -30.570312 23.8125 -30.6875 23.1875 -30.6875 C 22.082031 -30.6875 21.160156 -30.414062 20.421875 -29.875 C 19.679688 -29.34375 19.335938 -28.585938 19.390625 -27.609375 C 19.390625 -26.453125 19.96875 -25.472656 21.125 -24.671875 C 22.28125 -23.867188 24.148438 -22.863281 26.734375 -21.65625 C 28.960938 -20.675781 30.800781 -19.773438 32.25 -18.953125 C 33.695312 -18.128906 34.921875 -17.09375 35.921875 -15.84375 C 36.929688 -14.59375 37.4375 -13.125 37.4375 -11.4375 C 37.4375 -11.070312 37.347656 -10.398438 37.171875 -9.421875 C 36.453125 -6.441406 34.46875 -4.082031 31.21875 -2.34375 C 27.96875 -0.601562 23.6875 0.265625 18.375 0.265625 C 12.40625 0.265625 7.671875 -0.535156 4.171875 -2.140625 C 0.679688 -3.742188 -1.0625 -5.945312 -1.0625 -8.75 C -1.0625 -10.664062 -0.484375 -12.113281 0.671875 -13.09375 C 1.828125 -14.082031 3.363281 -14.578125 5.28125 -14.578125 C 7.507812 -14.578125 9.414062 -13.882812 11 -12.5 C 12.582031 -11.113281 13.375 -9.351562 13.375 -7.21875 C 13.375 -6.632812 13.304688 -6.035156 13.171875 -5.421875 C 14.234375 -5.148438 15.257812 -5.015625 16.25 -5.015625 C 17.40625 -5.015625 18.359375 -5.328125 19.109375 -5.953125 C 19.867188 -6.578125 20.25 -7.445312 20.25 -8.5625 C 20.207031 -9.582031 19.695312 -10.457031 18.71875 -11.1875 C 17.738281 -11.925781 16.175781 -12.8125 14.03125 -13.84375 C 12.03125 -14.769531 10.382812 -15.644531 9.09375 -16.46875 C 7.800781 -17.300781 6.695312 -18.335938 5.78125 -19.578125 C 4.863281 -20.828125 4.40625 -22.300781 4.40625 -24 C 4.40625 -27.65625 5.929688 -30.5625 8.984375 -32.71875 C 12.035156 -34.882812 16.367188 -35.96875 21.984375 -35.96875 Z M 21.984375 -35.96875 "/></g></g></g></svg>