<svg xmlns="http://www.w3.org/2000/svg" xmlns:xlink="http://www.w3.org/1999/xlink" width="200" zoomAndPan="magnify" viewBox="0 0 150 84.749999" height="113" preserveAspectRatio="xMidYMid meet" version="1.0"><defs><g/><clipPath id="afc59b9bee"><path d="M 4 0 L 147 0 L 147 84.5 L 4 84.5 Z M 4 0 " clip-rule="nonzero"/></clipPath><clipPath id="0d22914574"><rect x="0" width="143" y="0" height="85"/></clipPath></defs><g clip-path="url(#afc59b9bee)"><g transform="matrix(1, 0, 0, 1, 4, 0.000000000000001628)"><g clip-path="url(#0d22914574)"><g fill="#f5f5f5" fill-opacity="1"><g transform="translate(1.380753, 63.266883)"><g><path d="M 41.953125 -9.75 C 41.859375 -9.375 41.8125 -9.09375 41.8125 -8.90625 C 41.8125 -8.570312 41.894531 -8.3125 42.0625 -8.125 C 42.226562 -7.9375 42.453125 -7.84375 42.734375 -7.84375 C 43.296875 -7.84375 43.773438 -8.085938 44.171875 -8.578125 C 44.578125 -9.078125 44.851562 -9.328125 45 -9.328125 C 45.226562 -9.328125 45.425781 -9.171875 45.59375 -8.859375 C 45.757812 -8.554688 45.84375 -8.191406 45.84375 -7.765625 C 45.894531 -6.453125 45.425781 -5.144531 44.4375 -3.84375 C 43.445312 -2.550781 42.054688 -1.476562 40.265625 -0.625 C 38.472656 0.21875 36.472656 0.640625 34.265625 0.640625 C 31.484375 0.640625 29.265625 0.078125 27.609375 -1.046875 C 25.960938 -2.179688 24.90625 -3.671875 24.4375 -5.515625 C 22.75 -3.628906 20.878906 -2.203125 18.828125 -1.234375 C 16.773438 -0.265625 14.691406 0.21875 12.578125 0.21875 C 9.273438 0.21875 6.503906 -0.59375 4.265625 -2.21875 C 2.035156 -3.84375 0.921875 -6.117188 0.921875 -9.046875 C 0.921875 -10.359375 1.15625 -11.722656 1.625 -13.140625 L 6.140625 -27.90625 C 6.285156 -28.320312 6.359375 -28.675781 6.359375 -28.96875 C 6.359375 -29.476562 6.238281 -29.882812 6 -30.1875 C 5.769531 -30.5 5.414062 -30.820312 4.9375 -31.15625 C 4.46875 -31.53125 4.140625 -31.859375 3.953125 -32.140625 C 3.765625 -32.421875 3.742188 -32.796875 3.890625 -33.265625 C 4.171875 -34.347656 5.648438 -35.300781 8.328125 -36.125 C 11.015625 -36.957031 13.816406 -37.375 16.734375 -37.375 C 19.472656 -37.375 21.476562 -36.851562 22.75 -35.8125 C 24.019531 -34.78125 24.65625 -33.367188 24.65625 -31.578125 C 24.65625 -30.492188 24.488281 -29.457031 24.15625 -28.46875 L 19.703125 -13.78125 C 19.515625 -13.257812 19.421875 -12.765625 19.421875 -12.296875 C 19.421875 -11.628906 19.609375 -11.128906 19.984375 -10.796875 C 20.367188 -10.472656 20.863281 -10.3125 21.46875 -10.3125 C 22.363281 -10.3125 23.09375 -10.570312 23.65625 -11.09375 C 24.226562 -11.613281 24.796875 -12.484375 25.359375 -13.703125 L 29.671875 -27.90625 C 29.804688 -28.320312 29.875 -28.675781 29.875 -28.96875 C 29.875 -29.476562 29.753906 -29.882812 29.515625 -30.1875 C 29.285156 -30.5 28.957031 -30.820312 28.53125 -31.15625 C 28.0625 -31.53125 27.734375 -31.859375 27.546875 -32.140625 C 27.359375 -32.421875 27.335938 -32.796875 27.484375 -33.265625 C 27.710938 -34.347656 29.171875 -35.300781 31.859375 -36.125 C 34.546875 -36.957031 37.347656 -37.375 40.265625 -37.375 C 42.992188 -37.375 45.003906 -36.851562 46.296875 -35.8125 C 47.597656 -34.78125 48.25 -33.390625 48.25 -31.640625 C 48.25 -30.753906 48.0625 -29.695312 47.6875 -28.46875 Z M 41.953125 -9.75 "/></g></g></g><g fill="#f5f5f5" fill-opacity="1"><g transform="translate(49.832713, 63.266883)"><g><path d="M 24.578125 0.421875 C 20.628906 0.421875 17.078125 -0.304688 13.921875 -1.765625 C 10.765625 -3.222656 8.253906 -5.375 6.390625 -8.21875 C 4.535156 -11.070312 3.609375 -14.523438 3.609375 -18.578125 C 3.609375 -21.398438 4.101562 -24.460938 5.09375 -27.765625 C 7.25 -34.828125 10.515625 -39.921875 14.890625 -43.046875 C 19.273438 -46.179688 23.96875 -47.75 28.96875 -47.75 C 31.644531 -47.75 34.019531 -47.347656 36.09375 -46.546875 C 38.164062 -45.742188 40.070312 -44.59375 41.8125 -43.09375 L 43.71875 -44.578125 C 45 -45.566406 46.070312 -46.25 46.9375 -46.625 C 47.8125 -47 48.789062 -47.1875 49.875 -47.1875 C 51.050781 -47.1875 51.988281 -46.925781 52.6875 -46.40625 C 53.394531 -45.894531 53.75 -45.144531 53.75 -44.15625 C 53.75 -43.632812 53.65625 -43.113281 53.46875 -42.59375 L 49.515625 -31.578125 C 49.097656 -30.304688 48.59375 -29.410156 48 -28.890625 C 47.414062 -28.367188 46.53125 -28.109375 45.34375 -28.109375 C 44.125 -28.109375 43.125 -28.546875 42.34375 -29.421875 C 41.570312 -30.296875 40.691406 -31.789062 39.703125 -33.90625 C 38.566406 -36.125 37.644531 -37.582031 36.9375 -38.28125 C 36.238281 -38.988281 35.207031 -39.34375 33.84375 -39.34375 C 31.90625 -39.34375 30.039062 -38.15625 28.25 -35.78125 C 26.46875 -33.40625 24.84375 -29.835938 23.375 -25.078125 C 22.15625 -21.078125 21.546875 -17.734375 21.546875 -15.046875 C 21.546875 -12.691406 21.992188 -10.9375 22.890625 -9.78125 C 23.785156 -8.625 24.984375 -8.046875 26.484375 -8.046875 C 28.703125 -8.046875 30.53125 -8.539062 31.96875 -9.53125 C 33.40625 -10.519531 34.875 -11.863281 36.375 -13.5625 C 37.320312 -14.59375 38.085938 -15.351562 38.671875 -15.84375 C 39.265625 -16.34375 39.890625 -16.59375 40.546875 -16.59375 C 41.390625 -16.59375 42.28125 -16.171875 43.21875 -15.328125 C 44.164062 -14.484375 44.617188 -13.632812 44.578125 -12.78125 C 44.617188 -11.75 43.78125 -10.148438 42.0625 -7.984375 C 40.34375 -5.816406 37.960938 -3.875 34.921875 -2.15625 C 31.890625 -0.4375 28.441406 0.421875 24.578125 0.421875 Z M 24.578125 0.421875 "/></g></g></g><g fill="#f5f5f5" fill-opacity="1"><g transform="translate(98.708447, 63.266883)"><g><path d="M 23.234375 -38 C 27.148438 -38 30.53125 -37.644531 33.375 -36.9375 C 36.226562 -36.238281 38.421875 -35.253906 39.953125 -33.984375 C 41.484375 -32.710938 42.25 -31.273438 42.25 -29.671875 C 42.25 -28.023438 41.597656 -26.679688 40.296875 -25.640625 C 39.003906 -24.609375 37.203125 -24.09375 34.890625 -24.09375 C 32.535156 -24.09375 30.546875 -24.679688 28.921875 -25.859375 C 27.296875 -27.035156 26.484375 -28.519531 26.484375 -30.3125 C 26.484375 -30.914062 26.578125 -31.503906 26.765625 -32.078125 C 25.921875 -32.304688 25.171875 -32.421875 24.515625 -32.421875 C 23.335938 -32.421875 22.359375 -32.140625 21.578125 -31.578125 C 20.804688 -31.015625 20.441406 -30.210938 20.484375 -29.171875 C 20.484375 -27.953125 21.09375 -26.914062 22.3125 -26.0625 C 23.539062 -25.21875 25.519531 -24.160156 28.25 -22.890625 C 30.601562 -21.847656 32.546875 -20.890625 34.078125 -20.015625 C 35.609375 -19.148438 36.90625 -18.054688 37.96875 -16.734375 C 39.03125 -15.421875 39.5625 -13.867188 39.5625 -12.078125 C 39.5625 -11.703125 39.46875 -10.992188 39.28125 -9.953125 C 38.519531 -6.804688 36.421875 -4.3125 32.984375 -2.46875 C 29.546875 -0.632812 25.023438 0.28125 19.421875 0.28125 C 13.109375 0.28125 8.101562 -0.5625 4.40625 -2.25 C 0.71875 -3.945312 -1.125 -6.28125 -1.125 -9.25 C -1.125 -11.28125 -0.515625 -12.8125 0.703125 -13.84375 C 1.929688 -14.882812 3.554688 -15.40625 5.578125 -15.40625 C 7.929688 -15.40625 9.941406 -14.671875 11.609375 -13.203125 C 13.285156 -11.742188 14.125 -9.882812 14.125 -7.625 C 14.125 -7.007812 14.054688 -6.375 13.921875 -5.71875 C 15.046875 -5.4375 16.128906 -5.296875 17.171875 -5.296875 C 18.390625 -5.296875 19.398438 -5.625 20.203125 -6.28125 C 21.003906 -6.945312 21.40625 -7.867188 21.40625 -9.046875 C 21.351562 -10.128906 20.804688 -11.054688 19.765625 -11.828125 C 18.734375 -12.609375 17.085938 -13.539062 14.828125 -14.625 C 12.710938 -15.613281 10.972656 -16.539062 9.609375 -17.40625 C 8.242188 -18.28125 7.078125 -19.375 6.109375 -20.6875 C 5.140625 -22.007812 4.65625 -23.566406 4.65625 -25.359375 C 4.65625 -29.222656 6.269531 -32.296875 9.5 -34.578125 C 12.726562 -36.859375 17.304688 -38 23.234375 -38 Z M 23.234375 -38 "/></g></g></g></g></g></g></svg>
